<svg width="120" height="120" viewBox="0 0 120 120" fill="none" xmlns="http://www.w3.org/2000/svg">
<path d="M40.1486 45.753H39.2914V45.7873H18.8571V11.5016C18.8571 9.42072 20.5477 7.73019 22.6286 7.73019H72.24C73.4206 7.73019 74.539 8.18998 75.371 9.02199L89.5482 23.1991C90.3802 24.0312 90.84 25.1496 90.84 26.3302V60.9588H61.0971C59.0753 60.9588 57.1288 60.1003 55.766 58.5997L55.7659 58.5995L46.7488 48.6739C45.0602 46.8146 42.6525 45.753 40.1486 45.753Z" fill="#F6F5F9" stroke="#E0E0E1" stroke-width="1.71429"/>
<path d="M62.4155 29.2801H33.4955C32.5527 29.2801 31.7812 28.5087 31.7812 27.5658C31.7812 26.623 32.5527 25.8516 33.4955 25.8516H62.4155C63.3584 25.8516 64.1298 26.623 64.1298 27.5658C64.1298 28.5087 63.3584 29.2801 62.4155 29.2801Z" fill="#E0E0E1"/>
<path d="M71.6555 40.7469H33.4955C32.5527 40.7469 31.7812 39.9755 31.7812 39.0326C31.7812 38.0898 32.5527 37.3184 33.4955 37.3184H71.6555C72.5984 37.3184 73.3698 38.0898 73.3698 39.0326C73.3698 39.9755 72.5984 40.7469 71.6555 40.7469Z" fill="#E0E0E1"/>
<path d="M93.9084 61.7999H61.097C58.817 61.817 56.657 60.857 55.1313 59.177L46.1141 49.2513C44.5884 47.5713 42.4284 46.6113 40.1484 46.6113H15.8056C10.8684 46.6113 6.83984 50.657 6.83984 55.5942V93.857C6.83984 98.7942 10.8684 102.823 15.7884 102.823H93.9084C98.8456 102.823 102.874 98.8113 102.874 93.8742V70.7485C102.874 65.8113 98.8456 61.7828 93.9084 61.7828V61.7999Z" fill="#F36523"/>
<path d="M42.0148 81.9082H21.6491C20.1343 81.9082 18.9062 83.1362 18.9062 84.6511V89.5539C18.9062 91.0688 20.1343 92.2968 21.6491 92.2968H42.0148C43.5297 92.2968 44.7577 91.0688 44.7577 89.5539V84.6511C44.7577 83.1362 43.5297 81.9082 42.0148 81.9082Z" fill="#FCEAE1"/>
<path d="M91.2375 24.1359H76.6832C75.4489 24.1359 74.4375 23.1245 74.4375 21.8902V7.33594C75.0204 7.59308 75.5518 7.95308 75.9975 8.39879L90.1746 22.5759C90.6204 23.0217 90.9804 23.5531 91.2375 24.1359Z" fill="#E0E0E1"/>
<path d="M46.1143 49.2484L48.8229 52.2313H62.4172C63.36 52.2313 64.1315 51.4599 64.1315 50.517C64.1315 49.5742 63.36 48.8027 62.4172 48.8027H45.6172C45.7886 48.957 45.96 49.077 46.1143 49.2484Z" fill="#E0E0E1"/>
<rect x="82.2852" y="82.2852" width="34.2857" height="34.2857" rx="17.1429" fill="#D91E2A"/>
<path d="M93.367 107.196C92.9213 107.196 92.4927 107.024 92.1499 106.699C91.4813 106.03 91.4813 104.95 92.1499 104.282L104.27 92.1616C104.938 91.493 106.018 91.493 106.687 92.1616C107.356 92.8302 107.356 93.9102 106.687 94.5787L94.567 106.699C94.2242 107.042 93.7956 107.196 93.3499 107.196H93.367Z" fill="white"/>
<path d="M105.503 107.196C105.057 107.196 104.628 107.024 104.285 106.699L92.1655 94.5787C91.4969 93.9102 91.4969 92.8302 92.1655 92.1616C92.8341 91.493 93.9141 91.493 94.5826 92.1616L106.703 104.282C107.371 104.95 107.371 106.03 106.703 106.699C106.36 107.042 105.931 107.196 105.485 107.196H105.503Z" fill="white"/>
</svg>
